<?xml version="1.0" encoding="utf-8"?>
<!-- Generator: Adobe Illustrator 24.0.1, SVG Export Plug-In . SVG Version: 6.00 Build 0)  -->
<svg version="1.1" id="Capa_1" xmlns="http://www.w3.org/2000/svg" xmlns:xlink="http://www.w3.org/1999/xlink" x="0px" y="0px"
	 viewBox="0 0 141.73 92.13" style="enable-background:new 0 0 141.73 92.13;" xml:space="preserve">
<style type="text/css">
	.st0{stroke:#000000;stroke-width:0.25;stroke-miterlimit:10;}
	.st1{fill:#FFFFFF;stroke:#000000;stroke-width:0.25;stroke-miterlimit:10;}
	.st2{font-family:'Amatic SC', cursive;}
	.st3{font-size:65.4525px;}
	.st4{letter-spacing:-2;}
</style>
<g>
	<g>
		<path class="st0" d="M17.74,32.49c0,0-24.75-14.93-13.71-28.44s14.93,26.19,14.93,26.19s3.89-1.23,4.71-0.61
			c0,0,5.93-23.12,22.71-20.25S30.63,30.24,30.63,30.24s8.59,10.02-3.07,17.59c0,0,24.55,43.57-2.45,43.16s-6.96-37.85-3.48-43.57
			C21.63,47.42,10.99,43.74,17.74,32.49z"/>
		<path class="st1" d="M19.63,79.7c0,0,2.45-6.85,7.09-2.2c0,0,4.16,0,4.16,2.2c0,0,1.71,2.45-0.98,4.4c0,0-0.93,4.16-4.38,4.4
			c0,0-4.43,1.22-5.9-1.71C19.63,86.79,14.49,80.92,19.63,79.7z"/>
	</g>
	<text transform="matrix(1 0 0 1 46.7246 88.7551)" class="st2 st3 st4"> Rupert´s</text>
</g>
</svg>
